{"glyphs":{"0":{"ha":764,"x_min":0,"x_max":0,"o":"m 728 328 l 728 597 b 699 746 728 644 717 701 b 385 944 649 863 510 944 b 163 865 306 944 225 913 b 36 597 76 799 36 706 l 36 328 b 69 175 36 279 49 218 b 386 -18 124 60 261 -18 b 728 328 581 -18 728 135 z m 492 328 b 382 190 492 254 465 190 b 272 328 301 190 272 256 l 272 599 b 382 736 272 669 301 736 b 492 599 465 736 492 672 z "},"1":{"ha":764,"x_min":0,"x_max":0,"o":"m 532 0 l 532 926 l 144 926 l 144 726 l 296 726 l 296 0 z "},"2":{"ha":764,"x_min":0,"x_max":0,"o":"m 710 0 l 710 199 l 396 199 b 704 674 535 321 704 472 b 390 944 704 846 549 944 b 103 801 276 944 167 899 b 49 589 57 731 51 671 l 274 589 b 381 736 278 660 294 736 b 468 646 435 736 468 699 b 296 363 468 550 361 426 b 93 207 233 301 168 253 l 57 185 l 57 0 z "},"3":{"ha":760,"x_min":0,"x_max":0,"o":"m 715 272 b 540 496 715 388 646 461 b 663 692 618 538 663 601 b 372 944 663 851 519 944 b 56 657 197 944 58 840 l 289 657 b 361 736 290 703 313 736 b 426 656 407 736 426 696 b 271 549 426 553 350 549 l 271 375 b 479 282 346 375 479 393 b 376 190 479 222 432 190 b 271 275 319 190 285 219 l 32 275 b 58 156 36 231 42 197 b 372 -18 108 33 249 -18 b 715 272 536 -18 715 93 z "},"4":{"ha":764,"x_min":0,"x_max":0,"o":"m 750 163 l 750 349 l 649 349 l 649 926 l 428 926 l 14 336 l 14 163 l 421 163 l 421 0 l 649 0 l 649 163 z m 436 349 l 250 349 l 436 639 z "},"5":{"ha":764,"x_min":0,"x_max":0,"o":"m 732 318 b 422 629 732 494 599 629 b 297 600 375 629 339 622 l 318 726 l 649 726 l 649 926 l 136 926 l 57 401 l 247 354 b 368 435 269 406 313 435 b 496 313 439 435 496 385 b 371 190 496 246 438 190 b 261 249 325 190 289 213 l 24 249 b 375 -18 56 75 206 -18 b 732 318 568 -18 732 118 z "},"6":{"ha":764,"x_min":0,"x_max":0,"o":"m 744 336 b 463 650 744 499 635 650 b 404 644 443 650 424 647 l 608 926 l 335 926 l 104 588 b 18 339 57 518 18 424 b 383 -18 18 136 182 -18 b 744 336 588 -18 744 129 z m 507 315 b 381 190 507 244 451 190 b 251 318 308 190 251 246 b 378 442 251 390 307 442 b 507 315 450 442 507 388 z "},"7":{"ha":764,"x_min":0,"x_max":0,"o":"m 689 744 l 689 926 l 85 926 l 85 726 l 444 726 l 103 0 l 363 0 z "},"8":{"ha":764,"x_min":0,"x_max":0,"o":"m 719 279 b 574 510 719 381 668 469 b 664 686 632 556 664 610 b 382 944 664 843 532 944 b 99 683 229 944 99 843 b 189 510 99 607 131 557 b 44 279 94 469 44 379 b 383 -18 44 100 217 -18 b 719 279 551 -18 719 99 z m 467 669 b 381 582 467 622 429 582 b 296 664 335 582 296 617 b 383 753 296 715 332 753 b 467 669 429 753 467 715 z m 483 296 b 385 190 483 240 442 190 b 281 297 324 190 281 236 b 382 401 281 356 322 401 b 483 296 440 401 483 353 z "},"9":{"ha":764,"x_min":0,"x_max":0,"o":"m 746 582 b 379 944 746 794 590 944 b 19 600 181 944 19 804 b 321 278 19 425 139 278 b 383 288 344 278 361 281 l 175 0 l 444 0 l 681 367 b 746 582 728 440 746 494 z m 508 613 b 382 488 508 542 453 488 b 254 614 313 488 254 544 b 381 736 254 681 315 736 b 508 613 449 736 508 682 z "}," ":{"ha":347,"x_min":0,"x_max":0,"o":""},"!":{"ha":410,"x_min":0,"x_max":0,"o":"m 313 306 l 313 926 l 97 926 l 97 306 z m 313 0 l 313 213 l 97 213 l 97 0 z "},"\"":{"ha":567,"x_min":0,"x_max":0,"o":"m 510 926 l 314 926 l 347 554 l 476 554 z m 253 926 l 57 926 l 90 554 l 219 554 z "},"#":{"ha":833,"x_min":0,"x_max":0,"o":"m 839 690 l 700 690 l 738 926 l 557 926 l 519 690 l 399 690 l 436 926 l 258 926 l 219 690 l 79 690 l 56 532 l 196 532 l 176 413 l 35 413 l 11 254 l 153 254 l 111 0 l 290 0 l 331 254 l 451 254 l 411 0 l 592 0 l 632 254 l 774 254 l 799 413 l 657 413 l 675 532 l 815 532 z m 494 532 l 476 413 l 356 413 l 374 532 z "},"$":{"ha":764,"x_min":0,"x_max":0,"o":"m 665 290 b 481 532 665 407 588 493 b 313 660 421 553 313 579 b 381 731 313 700 339 731 b 449 651 428 731 446 693 l 643 651 l 643 664 b 592 811 643 724 628 764 b 468 889 557 857 524 875 l 468 1015 l 299 1015 l 299 889 b 99 636 176 856 99 765 b 294 392 99 506 179 435 b 451 267 353 369 451 344 b 379 192 451 226 421 192 b 306 281 328 192 310 236 l 92 281 b 147 117 92 221 110 164 b 299 32 188 65 236 44 l 299 -94 l 468 -94 l 468 38 b 665 290 583 74 665 167 z "},"%":{"ha":1111,"x_min":0,"x_max":0,"o":"m 1069 206 b 843 431 1069 335 972 431 b 615 203 711 431 615 335 b 843 -18 615 72 714 -18 b 1069 206 971 -18 1069 76 z m 824 926 l 676 926 l 288 0 l 435 0 z m 496 721 b 268 944 496 850 396 944 b 42 718 138 944 42 849 b 269 496 42 588 140 496 b 496 721 399 496 496 592 z m 925 206 b 843 119 925 158 892 119 b 760 207 794 119 760 160 b 843 292 760 253 796 292 b 925 206 890 292 925 251 z m 351 721 b 269 635 351 675 317 635 b 186 721 221 635 186 674 b 269 806 186 768 222 806 b 351 721 315 806 351 767 z "},"&":{"ha":917,"x_min":0,"x_max":0,"o":"m 893 546 l 675 546 l 607 394 l 497 504 b 626 717 574 558 626 619 b 382 944 626 853 513 944 b 125 706 246 944 125 847 b 213 506 125 625 156 563 b 42 250 122 443 42 368 b 351 -18 42 83 197 -18 b 628 94 463 -18 546 22 l 738 -18 l 879 121 l 753 250 b 822 374 782 288 804 329 z m 438 718 b 379 615 438 674 410 644 b 326 715 353 644 326 674 b 383 778 326 749 349 778 b 438 718 418 778 438 751 z m 489 231 b 376 181 457 196 424 181 b 269 272 321 181 269 213 b 340 381 269 321 306 353 z "},"’":{"ha":364,"x_min":0,"x_max":0,"o":"m 290 663 l 290 926 l 74 926 l 74 713 l 171 713 l 171 671 b 74 624 171 617 111 624 l 74 511 l 163 511 b 290 663 249 511 290 585 z "},"(":{"ha":517,"x_min":0,"x_max":0,"o":"m 479 -260 l 479 -53 b 260 346 340 21 260 193 b 479 747 260 500 339 672 l 479 954 b 300 860 415 931 356 900 b 42 347 138 739 42 550 b 300 -165 42 146 138 -44 b 479 -260 356 -206 415 -236 z "},")":{"ha":517,"x_min":0,"x_max":0,"o":"m 475 347 b 217 860 475 549 379 739 b 38 954 161 900 101 931 l 38 747 b 257 349 176 674 257 501 b 38 -53 257 194 178 21 l 38 -260 b 217 -165 101 -236 161 -206 b 475 347 379 -44 475 144 z "},"*":{"ha":764,"x_min":0,"x_max":0,"o":"m 658 674 l 610 811 l 449 751 l 457 926 l 307 926 l 311 751 l 151 811 l 106 674 l 271 624 l 163 486 l 279 397 l 379 542 l 481 397 l 597 486 l 493 624 z "},"+":{"ha":694,"x_min":0,"x_max":0,"o":"m 649 390 l 649 553 l 435 553 l 435 767 l 260 767 l 260 553 l 46 553 l 46 390 l 260 390 l 260 176 l 435 176 l 435 390 z "},",":{"ha":364,"x_min":0,"x_max":0,"o":"m 290 -50 l 290 213 l 74 213 l 74 0 l 171 0 l 171 -43 b 74 -90 171 -97 110 -90 l 74 -201 l 163 -201 b 290 -50 249 -201 290 -128 z "},"-":{"ha":351,"x_min":0,"x_max":0,"o":"m 351 268 l 351 444 l 0 444 l 0 268 z "},".":{"ha":364,"x_min":0,"x_max":0,"o":"m 290 0 l 290 213 l 74 213 l 74 0 z "},"/":{"ha":586,"x_min":0,"x_max":0,"o":"m 540 926 l 336 926 l -26 -232 l 178 -232 z "},":":{"ha":364,"x_min":0,"x_max":0,"o":"m 290 482 l 290 694 l 74 694 l 74 482 z m 290 0 l 290 213 l 74 213 l 74 0 z "},";":{"ha":364,"x_min":0,"x_max":0,"o":"m 290 482 l 290 694 l 74 694 l 74 482 z m 290 -50 l 290 213 l 74 213 l 74 0 l 171 0 l 171 -43 b 74 -90 171 -97 110 -90 l 74 -201 l 163 -201 b 290 -50 249 -201 290 -128 z "},"<":{"ha":694,"x_min":0,"x_max":0,"o":"m 649 85 l 647 257 l 232 463 l 649 668 l 649 843 l 46 538 l 46 390 z "},"=":{"ha":694,"x_min":0,"x_max":0,"o":"m 649 515 l 649 668 l 46 668 l 46 515 z m 649 276 l 649 429 l 46 429 l 46 276 z "},">":{"ha":694,"x_min":0,"x_max":0,"o":"m 649 389 l 649 538 l 46 843 l 47 669 l 463 464 l 46 258 l 46 85 z "},"?":{"ha":689,"x_min":0,"x_max":0,"o":"m 647 679 b 347 944 647 842 499 944 b 18 633 164 944 18 822 b 19 610 18 625 18 618 l 249 610 b 335 731 250 674 260 731 b 407 653 385 731 407 700 b 193 294 407 532 196 471 l 410 294 b 647 679 421 425 647 474 z m 410 0 l 410 213 l 193 213 l 193 0 z "},"@":{"ha":1018,"x_min":0,"x_max":0,"o":"m 972 533 b 533 942 972 781 772 942 b 46 456 261 942 46 728 b 192 108 46 326 97 197 b 538 -17 289 17 407 -17 b 821 26 631 -17 732 -4 l 793 135 b 540 92 713 106 626 92 b 385 114 488 92 435 97 b 164 453 244 161 164 310 b 540 833 164 665 326 833 b 865 533 719 833 865 721 b 814 357 865 475 849 406 b 750 313 800 338 776 313 b 718 357 725 313 718 336 b 726 418 718 378 722 399 l 778 682 l 657 683 l 647 629 b 511 697 618 675 564 697 b 268 419 368 697 268 553 b 464 201 268 306 344 201 b 636 289 531 201 597 233 b 744 213 650 240 696 213 b 949 396 844 213 917 311 b 972 533 964 440 972 486 z m 617 479 b 497 325 617 411 576 325 b 406 425 439 325 406 369 b 528 571 406 493 453 571 b 617 479 581 571 617 531 z "},"A":{"ha":917,"x_min":0,"x_max":0,"o":"m 922 0 l 554 926 l 367 926 l -4 0 l 250 0 l 299 135 l 621 135 l 665 0 z m 557 322 l 364 322 l 461 639 z "},"B":{"ha":801,"x_min":0,"x_max":0,"o":"m 761 281 b 608 496 761 388 710 463 b 715 683 678 536 715 603 b 628 875 715 756 685 829 b 364 926 561 929 444 926 l 79 926 l 79 0 l 372 0 b 676 81 486 0 589 -1 b 761 281 732 133 761 204 z m 489 647 b 389 574 489 586 442 574 l 306 574 l 306 718 l 389 718 b 489 647 442 718 489 710 z m 535 296 b 417 208 535 228 475 208 l 306 208 l 306 376 l 417 376 b 535 296 475 376 535 367 z "},"C":{"ha":1022,"x_min":0,"x_max":0,"o":"m 996 346 l 749 346 b 525 190 704 254 631 190 b 276 465 374 190 276 322 b 524 736 276 608 374 736 b 749 574 628 736 713 669 l 996 574 b 936 721 986 638 971 667 b 525 944 844 865 696 944 b 40 465 256 944 40 736 b 528 -18 40 193 257 -18 b 996 346 753 -18 943 126 z "},"D":{"ha":919,"x_min":0,"x_max":0,"o":"m 879 467 b 682 860 879 625 819 772 b 390 926 589 919 499 926 l 79 926 l 79 0 l 443 0 b 879 467 719 0 879 201 z m 643 460 b 417 208 643 310 575 208 l 315 208 l 315 718 l 418 718 b 643 460 578 718 643 607 z "},"E":{"ha":651,"x_min":0,"x_max":0,"o":"m 593 0 l 593 208 l 306 208 l 306 367 l 585 367 l 585 575 l 306 575 l 306 718 l 593 718 l 593 926 l 79 926 l 79 0 z "},"F":{"ha":617,"x_min":0,"x_max":0,"o":"m 585 718 l 585 926 l 79 926 l 79 0 l 306 0 l 306 353 l 575 353 l 575 561 l 306 561 l 306 718 z "},"G":{"ha":1065,"x_min":0,"x_max":0,"o":"m 1026 479 b 1024 526 1026 494 1025 511 l 475 526 l 475 338 l 750 338 b 546 189 726 240 643 189 b 276 476 376 189 276 313 b 529 736 276 622 382 736 b 732 615 617 736 690 693 l 997 615 b 536 944 942 814 738 944 b 40 467 264 944 40 744 b 531 -18 40 193 258 -18 b 1026 479 814 -18 1026 197 z "},"H":{"ha":932,"x_min":0,"x_max":0,"o":"m 854 0 l 854 926 l 618 926 l 618 579 l 315 579 l 315 926 l 79 926 l 79 0 l 315 0 l 315 371 l 618 371 l 618 0 z "},"I":{"ha":393,"x_min":0,"x_max":0,"o":"m 315 0 l 315 926 l 79 926 l 79 0 z "},"J":{"ha":700,"x_min":0,"x_max":0,"o":"m 631 365 l 631 926 l 394 926 l 394 307 b 324 190 394 254 392 190 b 251 297 263 190 254 249 l 0 297 b 22 161 0 242 3 213 b 311 -18 67 43 190 -18 b 574 103 410 -18 511 24 b 631 365 632 176 631 276 z "},"K":{"ha":838,"x_min":0,"x_max":0,"o":"m 847 0 l 519 464 l 828 926 l 579 926 l 315 508 l 315 926 l 79 926 l 79 0 l 315 0 l 315 400 l 569 0 z "},"L":{"ha":607,"x_min":0,"x_max":0,"o":"m 589 0 l 589 208 l 315 208 l 315 926 l 79 926 l 79 0 z "},"M":{"ha":1135,"x_min":0,"x_max":0,"o":"m 1056 0 l 1056 926 l 750 926 l 567 317 l 383 926 l 79 926 l 79 0 l 296 0 l 289 696 l 489 0 l 646 0 l 846 696 l 838 0 z "},"N":{"ha":939,"x_min":0,"x_max":0,"o":"m 860 0 l 860 926 l 633 926 l 643 343 l 282 926 l 79 926 l 79 0 l 306 0 l 296 563 l 654 0 z "},"O":{"ha":1057,"x_min":0,"x_max":0,"o":"m 1018 463 b 526 944 1018 738 799 944 b 40 461 253 944 40 736 b 526 -18 40 189 256 -18 b 1018 463 797 -18 1018 188 z m 782 461 b 532 190 782 318 681 190 b 276 465 378 190 276 317 b 529 736 276 611 378 736 b 782 461 682 736 782 607 z "},"P":{"ha":803,"x_min":0,"x_max":0,"o":"m 775 611 b 667 857 775 706 740 796 b 382 926 589 922 479 926 l 79 926 l 79 0 l 306 0 l 306 290 b 678 371 432 290 578 276 b 775 611 742 431 775 524 z m 549 608 b 401 500 549 519 478 500 l 306 500 l 306 718 l 392 718 b 549 608 471 718 549 704 z "},"Q":{"ha":1063,"x_min":0,"x_max":0,"o":"m 1065 -17 l 1065 171 b 944 203 1022 169 979 171 b 1024 458 999 283 1024 361 b 526 944 1024 736 801 944 b 40 458 254 944 40 731 b 539 -18 40 181 268 -18 b 790 54 631 -18 713 7 b 1007 -19 843 -1 933 -19 b 1065 -17 1026 -19 1046 -18 z m 788 472 b 756 335 788 418 776 385 b 410 533 671 438 549 533 b 278 503 358 533 325 522 b 526 736 299 635 386 736 b 788 472 679 736 788 624 z m 622 225 b 524 190 588 201 567 190 b 301 346 426 190 339 257 b 385 361 331 356 354 361 b 622 225 486 361 564 301 z "},"R":{"ha":814,"x_min":0,"x_max":0,"o":"m 792 0 l 540 315 b 771 606 688 340 771 461 b 657 860 771 703 732 797 b 372 926 578 926 471 926 l 79 926 l 79 0 l 306 0 l 306 300 l 521 0 z m 543 592 b 389 461 543 499 474 461 l 306 461 l 306 718 l 392 718 b 543 592 475 718 543 685 z "},"S":{"ha":717,"x_min":0,"x_max":0,"o":"m 679 265 b 350 583 679 463 501 514 b 271 675 311 601 271 626 b 353 746 271 718 314 746 b 438 657 410 746 431 710 l 672 657 b 610 839 668 733 660 779 b 360 944 550 911 451 944 b 35 671 201 944 35 844 b 128 479 35 597 71 526 b 346 369 192 426 271 401 b 444 269 389 351 444 325 b 353 181 444 218 403 181 b 257 306 283 181 257 246 l 19 306 l 19 275 b 356 -18 19 76 171 -18 b 679 265 538 -18 679 69 z "},"T":{"ha":621,"x_min":0,"x_max":0,"o":"m 613 718 l 613 926 l 10 926 l 10 718 l 193 718 l 193 0 l 429 0 l 429 718 z "},"U":{"ha":850,"x_min":0,"x_max":0,"o":"m 781 365 l 781 926 l 544 926 l 544 365 b 426 190 544 275 536 190 b 306 365 321 190 306 278 l 306 926 l 69 926 l 69 365 b 163 81 69 250 78 165 b 426 -18 233 10 328 -18 b 689 82 526 -18 618 10 b 781 365 768 163 781 256 z "},"V":{"ha":836,"x_min":0,"x_max":0,"o":"m 850 926 l 606 926 l 418 276 l 231 926 l -14 926 l 296 0 l 539 0 z "},"W":{"ha":1206,"x_min":0,"x_max":0,"o":"m 1196 926 l 956 926 l 829 321 l 693 926 l 511 926 l 374 324 l 250 926 l 10 926 l 249 0 l 461 0 l 601 599 l 742 0 l 950 0 z "},"X":{"ha":894,"x_min":0,"x_max":0,"o":"m 908 0 l 588 489 l 871 926 l 604 926 l 450 661 l 292 926 l 24 926 l 310 493 l -14 0 l 250 0 l 440 328 l 640 0 z "},"Y":{"ha":760,"x_min":0,"x_max":0,"o":"m 774 926 l 519 926 l 381 554 l 243 926 l -14 926 l 263 338 l 263 0 l 499 0 l 499 338 z "},"Z":{"ha":635,"x_min":0,"x_max":0,"o":"m 607 0 l 607 208 l 311 208 l 607 735 l 607 926 l 24 926 l 24 718 l 343 718 l 24 156 l 24 0 z "},"[":{"ha":517,"x_min":0,"x_max":0,"o":"m 433 -331 l 433 -126 b 296 42 324 -122 296 -60 l 296 574 b 433 740 296 675 324 736 l 433 944 b 222 869 351 933 289 919 b 83 550 111 786 83 685 l 83 65 b 222 -256 83 -68 110 -174 b 433 -331 290 -306 353 -314 z "},"\\":{"ha":694,"x_min":0,"x_max":0,"o":"m 635 -115 l 210 1042 l 38 1042 l 464 -115 z "},"]":{"ha":517,"x_min":0,"x_max":0,"o":"m 433 65 l 433 550 b 386 769 433 628 426 701 b 294 869 363 808 331 842 b 104 942 229 918 185 931 l 83 944 l 83 740 b 221 574 193 736 221 675 l 221 42 b 83 -126 221 -60 193 -122 l 83 -331 b 107 -326 92 -328 99 -328 b 294 -256 186 -314 231 -303 b 433 65 407 -172 433 -69 z "},"^":{"ha":694,"x_min":0,"x_max":0,"o":"m 686 467 l 463 931 l 232 931 l 8 467 l 192 467 l 347 790 l 503 467 z "},"_":{"ha":694,"x_min":0,"x_max":0,"o":"m 694 -224 l 694 -65 l 0 -65 l 0 -224 z "},"‘":{"ha":364,"x_min":0,"x_max":0,"o":"m 290 511 l 290 725 l 193 725 l 193 767 b 290 814 193 821 253 814 l 290 926 l 201 926 b 74 775 115 926 74 853 l 74 511 z "},"a":{"ha":871,"x_min":0,"x_max":0,"o":"m 801 0 l 801 694 l 606 694 l 606 621 b 394 719 561 700 479 719 b 38 347 178 719 38 560 b 390 -24 38 135 172 -24 b 606 75 472 -24 565 -6 l 606 0 z m 593 349 b 419 171 593 247 522 171 b 246 347 321 171 246 249 b 418 524 246 444 319 524 b 593 349 518 524 593 449 z "},"b":{"ha":858,"x_min":0,"x_max":0,"o":"m 821 351 b 478 718 821 553 686 718 b 278 639 401 718 332 696 l 278 926 l 69 926 l 69 0 l 267 0 l 267 75 b 469 -24 328 10 378 -24 b 821 351 685 -24 821 143 z m 613 347 b 439 171 613 249 539 171 b 269 347 339 171 269 249 b 442 524 269 446 342 524 b 613 347 540 524 613 443 z "},"c":{"ha":797,"x_min":0,"x_max":0,"o":"m 774 264 l 564 264 b 411 171 526 206 482 171 b 246 344 311 171 246 247 b 411 524 246 442 310 524 b 563 426 478 524 536 488 l 772 426 b 404 718 735 603 582 718 b 38 349 197 718 38 556 b 410 -24 38 140 201 -24 b 774 264 585 -24 733 94 z "},"d":{"ha":865,"x_min":0,"x_max":0,"o":"m 796 0 l 796 926 l 588 926 l 588 636 b 382 718 529 694 464 718 b 38 349 174 718 38 549 b 386 -24 38 143 174 -24 b 599 74 476 -24 542 3 l 599 0 z m 599 350 b 421 171 599 247 525 171 b 246 349 318 171 246 247 b 424 524 246 451 322 524 b 599 350 522 524 599 450 z "},"e":{"ha":803,"x_min":0,"x_max":0,"o":"m 765 339 b 399 718 765 549 613 718 b 38 346 193 718 38 547 b 403 -24 38 143 199 -24 b 740 217 560 -24 681 76 l 529 217 l 519 207 b 392 153 481 168 447 153 b 239 282 313 153 249 201 l 760 282 b 765 339 764 301 765 319 z m 557 421 l 244 421 b 400 542 261 499 322 542 b 557 421 475 542 542 497 z "},"f":{"ha":408,"x_min":0,"x_max":0,"o":"m 385 538 l 385 694 l 296 694 b 385 788 296 771 307 788 l 385 944 l 353 944 b 88 731 206 944 88 900 l 88 694 l 11 694 l 11 538 l 88 538 l 88 0 l 296 0 l 296 538 z "},"g":{"ha":861,"x_min":0,"x_max":0,"o":"m 792 83 l 792 694 l 594 694 l 594 631 b 392 718 544 693 471 718 b 38 343 179 718 38 549 b 375 -24 38 151 175 -24 b 582 76 446 -24 547 8 l 582 54 b 414 -133 582 -54 529 -133 b 292 -65 363 -133 314 -115 l 51 -65 b 399 -310 74 -237 243 -310 b 731 -174 522 -310 647 -269 b 792 83 797 -97 792 -12 z m 583 344 b 414 171 583 246 514 171 b 246 350 313 171 246 251 b 415 524 246 446 318 524 b 583 344 518 524 583 444 z "},"h":{"ha":778,"x_min":0,"x_max":0,"o":"m 713 0 l 713 388 b 647 643 713 481 715 571 b 460 718 600 694 529 718 b 278 632 389 718 317 696 l 278 926 l 69 926 l 69 0 l 278 0 l 278 385 b 393 524 278 464 306 524 b 504 379 479 524 504 454 l 504 0 z "},"i":{"ha":347,"x_min":0,"x_max":0,"o":"m 278 768 l 278 926 l 69 926 l 69 768 z m 278 0 l 278 694 l 69 694 l 69 0 z "},"j":{"ha":347,"x_min":0,"x_max":0,"o":"m 278 768 l 278 926 l 69 926 l 69 768 z m 278 15 l 278 694 l 69 694 l 69 8 b -4 -97 69 -49 64 -97 l -32 -97 l -32 -254 l 19 -254 b 278 15 219 -254 278 -181 z "},"k":{"ha":710,"x_min":0,"x_max":0,"o":"m 719 694 l 474 694 l 278 443 l 278 926 l 69 926 l 69 0 l 278 0 l 278 335 l 476 0 l 713 0 l 457 390 z "},"l":{"ha":347,"x_min":0,"x_max":0,"o":"m 278 0 l 278 926 l 69 926 l 69 0 z "},"m":{"ha":1200,"x_min":0,"x_max":0,"o":"m 1135 0 l 1135 379 b 1058 649 1135 485 1139 572 b 879 718 1008 696 949 718 b 658 594 785 718 708 675 b 457 718 614 675 550 718 b 267 621 376 718 311 690 l 267 694 l 69 694 l 69 0 l 278 0 l 278 379 b 394 524 278 457 307 524 b 501 379 479 524 501 451 l 501 0 l 710 0 l 710 379 b 824 524 710 456 736 524 b 926 369 917 524 926 446 l 926 0 z "},"n":{"ha":778,"x_min":0,"x_max":0,"o":"m 713 0 l 713 435 b 643 647 713 521 707 585 b 457 718 594 694 525 718 b 267 621 372 718 315 690 l 267 694 l 69 694 l 69 0 l 278 0 l 278 388 b 396 524 278 468 308 524 b 504 379 486 524 504 457 l 504 0 z "},"o":{"ha":826,"x_min":0,"x_max":0,"o":"m 788 347 b 413 718 788 561 625 718 b 38 343 196 718 38 560 b 414 -24 38 128 201 -24 b 788 347 626 -24 788 133 z m 579 347 b 414 171 579 251 513 171 b 246 349 314 171 246 251 b 414 524 246 443 317 524 b 579 347 511 524 579 440 z "},"p":{"ha":865,"x_min":0,"x_max":0,"o":"m 825 342 b 485 718 825 544 699 718 b 265 618 393 718 322 692 l 265 694 l 69 694 l 69 -232 l 278 -232 l 278 64 b 486 -24 335 0 401 -24 b 825 342 690 -24 825 146 z m 617 347 b 443 171 617 249 542 171 b 268 350 343 171 268 251 b 442 524 268 446 346 524 b 617 347 542 524 617 447 z "},"q":{"ha":865,"x_min":0,"x_max":0,"o":"m 796 -232 l 796 694 l 599 694 l 599 618 b 389 718 547 689 475 718 b 38 335 169 718 38 543 b 374 -24 38 139 171 -24 b 588 71 464 -24 528 3 l 588 -232 z m 596 346 b 422 171 596 250 519 171 b 246 346 324 171 246 247 b 419 524 246 444 319 524 b 596 346 521 524 596 446 z "},"r":{"ha":449,"x_min":0,"x_max":0,"o":"m 440 510 l 440 718 b 267 621 358 718 308 693 l 267 694 l 69 694 l 69 0 l 276 0 l 276 383 b 440 510 276 490 347 508 z "},"s":{"ha":618,"x_min":0,"x_max":0,"o":"m 588 213 b 556 321 588 251 578 288 b 344 431 507 394 425 407 b 238 507 310 440 238 460 b 303 551 238 540 276 551 b 363 500 338 551 358 536 l 565 500 b 310 718 553 642 447 718 b 29 489 178 718 29 636 b 176 297 29 400 90 319 b 299 265 217 286 258 276 b 379 196 332 257 379 238 b 307 143 379 161 336 143 b 228 207 264 143 233 163 l 21 207 b 299 -24 38 56 153 -24 b 588 213 436 -24 588 58 z "},"t":{"ha":407,"x_min":0,"x_max":0,"o":"m 396 538 l 396 694 l 296 694 l 296 926 l 88 926 l 88 694 l -14 694 l -14 538 l 88 538 l 88 0 l 296 0 l 296 538 z "},"u":{"ha":781,"x_min":0,"x_max":0,"o":"m 711 0 l 711 694 l 503 694 l 503 307 b 385 171 503 231 468 171 b 274 307 296 171 274 226 l 274 694 l 65 694 l 65 279 b 128 64 65 193 69 131 b 331 -24 181 3 251 -24 b 514 74 410 -24 476 -1 l 514 0 z "},"v":{"ha":671,"x_min":0,"x_max":0,"o":"m 685 694 l 469 694 l 335 261 l 201 694 l -14 694 l 236 0 l 435 0 z "},"w":{"ha":1046,"x_min":0,"x_max":0,"o":"m 1046 694 l 832 694 l 726 263 l 611 694 l 435 694 l 319 263 l 214 694 l 0 694 l 213 0 l 406 0 l 522 449 l 640 0 l 833 0 z "},"x":{"ha":757,"x_min":0,"x_max":0,"o":"m 771 0 l 501 372 l 735 694 l 489 694 l 378 513 l 265 694 l 17 694 l 250 372 l -14 0 l 235 0 l 378 215 l 517 0 z "},"y":{"ha":689,"x_min":0,"x_max":0,"o":"m 703 694 l 482 694 l 347 292 l 207 694 l -14 694 l 244 35 l 135 -232 l 354 -232 z "},"z":{"ha":563,"x_min":0,"x_max":0,"o":"m 540 0 l 540 157 l 268 157 l 540 536 l 540 694 l 24 694 l 24 538 l 315 538 l 24 143 l 24 0 z "},"{":{"ha":694,"x_min":0,"x_max":0,"o":"m 558 -268 l 558 -112 l 531 -112 b 419 -33 460 -112 419 -115 l 419 158 b 336 333 419 240 407 288 b 419 508 408 383 419 422 l 419 700 b 531 779 419 781 460 779 l 558 779 l 558 935 b 513 935 543 935 528 935 b 468 938 499 935 482 938 b 244 738 317 938 244 899 l 244 521 b 168 414 244 464 226 426 l 168 265 b 244 146 233 253 244 207 l 244 -69 b 464 -271 244 -228 314 -271 b 558 -268 496 -271 526 -267 z "},"|":{"ha":694,"x_min":0,"x_max":0,"o":"m 435 -347 l 435 1042 l 260 1042 l 260 -347 z "},"}":{"ha":694,"x_min":0,"x_max":0,"o":"m 557 253 l 557 401 b 481 521 492 414 481 461 l 481 736 b 261 938 481 893 411 938 b 168 935 231 938 200 933 l 168 779 l 193 779 b 306 700 264 779 306 782 l 306 508 b 389 333 306 426 318 379 b 306 158 317 283 306 244 l 306 -33 b 196 -112 306 -114 265 -112 l 168 -112 l 168 -268 b 261 -271 200 -267 231 -271 b 481 -71 411 -271 481 -228 l 481 146 b 557 253 481 203 499 240 z "},"~":{"ha":926,"x_min":0,"x_max":0,"o":"m 801 979 l 701 1038 b 600 964 676 993 654 964 b 335 1035 522 964 422 1035 b 136 867 221 1035 178 963 b 125 843 132 858 129 851 l 222 779 b 324 865 246 826 265 865 b 581 794 400 865 501 794 b 672 818 613 794 643 804 b 801 979 740 853 769 913 z "},"¡":{"ha":410,"x_min":0,"x_max":0,"o":"m 313 482 l 313 694 l 97 694 l 97 482 z m 313 -232 l 313 389 l 97 389 l 97 -232 z "},"¢":{"ha":764,"x_min":0,"x_max":0,"o":"m 690 407 l 471 407 b 386 364 447 379 422 364 b 279 468 328 364 279 408 b 386 575 279 526 328 575 b 475 525 424 575 457 558 l 690 525 b 460 775 678 647 574 743 l 460 901 l 296 901 l 296 769 b 74 467 163 726 74 607 b 296 171 74 324 163 215 l 296 39 l 468 39 l 468 171 b 690 407 585 196 669 292 z "},"£":{"ha":764,"x_min":0,"x_max":0,"o":"m 768 236 b 754 315 768 265 764 288 l 553 315 b 561 271 558 300 561 286 b 460 185 561 207 518 185 l 407 185 b 456 269 435 208 456 231 b 415 356 456 306 439 329 l 511 356 l 511 522 l 315 522 b 274 622 290 553 274 581 b 383 736 274 685 319 736 b 479 636 449 736 474 696 l 697 636 b 650 797 690 699 683 743 b 371 944 590 894 483 944 b 38 640 201 944 38 819 b 72 522 38 593 50 564 l 11 522 l 11 356 l 172 356 b 225 251 197 324 225 294 b 50 185 225 169 104 185 l 50 0 l 494 0 b 768 236 632 0 768 88 z "},"⁄":{"ha":201,"x_min":0,"x_max":0,"o":"m 368 926 l 222 926 l -167 0 l -21 0 z "},"¥":{"ha":764,"x_min":0,"x_max":0,"o":"m 749 926 l 517 926 l 383 554 l 250 926 l 15 926 l 135 647 l 58 647 l 58 501 l 199 501 l 251 378 l 96 378 l 96 232 l 269 232 l 269 0 l 496 0 l 496 232 l 668 232 l 668 378 l 514 378 l 561 488 l 706 488 l 706 633 l 624 633 z "},"ƒ":{"ha":764,"x_min":0,"x_max":0,"o":"m 703 1015 b 651 1018 686 1019 668 1018 b 357 775 503 1018 382 922 l 350 735 l 258 735 l 232 578 l 322 578 l 250 160 b 108 13 233 67 211 13 b 86 14 101 13 93 13 l 53 -172 b 121 -179 75 -178 99 -179 b 408 -17 240 -179 350 -124 b 465 186 443 46 453 117 l 535 578 l 625 578 l 653 735 l 563 735 b 676 849 574 807 597 849 z "},"§":{"ha":764,"x_min":0,"x_max":0,"o":"m 751 308 b 594 517 751 419 690 474 l 367 619 b 293 694 333 635 293 653 b 381 760 293 744 338 760 b 490 688 432 760 475 740 l 694 688 b 393 944 688 851 547 944 b 93 697 242 944 93 867 b 132 558 93 646 103 601 b 13 349 61 506 13 440 b 181 131 13 232 83 175 l 394 32 b 504 -68 436 13 504 -14 b 390 -150 504 -126 439 -150 b 250 -43 318 -150 263 -118 l 44 -43 b 394 -339 60 -235 211 -339 b 708 -67 558 -339 708 -243 b 643 111 708 3 685 57 b 751 308 711 167 751 218 z m 567 272 b 521 196 567 240 547 214 l 268 313 b 201 392 232 329 201 349 b 251 460 201 425 222 447 l 482 356 b 567 272 517 340 567 318 z "},"¤":{"ha":926,"x_min":0,"x_max":0,"o":"m 896 190 l 754 333 b 815 522 793 393 815 450 b 751 717 815 599 792 653 l 892 857 l 797 953 l 656 811 b 464 871 594 851 538 871 b 269 810 390 871 331 850 l 125 954 l 29 858 l 174 714 b 111 524 133 654 111 596 b 174 332 111 453 133 389 l 31 190 l 126 94 l 268 236 b 463 174 331 197 388 174 b 660 236 536 174 599 196 l 801 94 z m 654 522 b 464 331 654 417 569 331 b 272 522 358 331 272 417 b 464 715 272 629 357 715 b 654 522 571 715 654 628 z "},"'":{"ha":310,"x_min":0,"x_max":0,"o":"m 253 926 l 57 926 l 90 554 l 219 554 z "},"“":{"ha":674,"x_min":0,"x_max":0,"o":"m 599 511 l 599 725 l 503 725 l 503 767 b 599 814 503 822 561 814 l 599 926 l 511 926 b 383 775 425 926 383 853 l 383 511 z m 290 511 l 290 725 l 193 725 l 193 767 b 290 814 193 821 253 814 l 290 926 l 201 926 b 74 775 115 926 74 853 l 74 511 z "},"«":{"ha":511,"x_min":0,"x_max":0,"o":"m 435 119 l 435 303 l 369 361 l 435 418 l 435 603 l 274 439 l 274 279 z m 207 119 l 207 303 l 143 361 l 207 418 l 207 603 l 46 439 l 46 279 z "},"‹":{"ha":263,"x_min":0,"x_max":0,"o":"m 207 119 l 207 303 l 143 361 l 207 418 l 207 613 l 46 439 l 46 279 z "},"›":{"ha":263,"x_min":0,"x_max":0,"o":"m 217 278 l 217 439 l 56 603 l 56 419 l 119 361 l 56 304 l 56 119 z "},"ﬁ":{"ha":756,"x_min":0,"x_max":0,"o":"m 686 768 l 686 926 l 478 926 l 478 768 z m 686 0 l 686 694 l 478 694 l 478 0 z m 385 538 l 385 694 l 296 694 b 385 788 296 771 307 788 l 385 944 l 353 944 b 88 731 206 944 88 900 l 88 694 l 11 694 l 11 538 l 88 538 l 88 0 l 296 0 l 296 538 z "},"ﬂ":{"ha":756,"x_min":0,"x_max":0,"o":"m 686 0 l 686 926 l 478 926 l 478 0 z m 385 538 l 385 694 l 296 694 b 385 788 296 771 307 788 l 385 944 l 353 944 b 88 731 206 944 88 900 l 88 694 l 11 694 l 11 538 l 88 538 l 88 0 l 296 0 l 296 538 z "},"–":{"ha":694,"x_min":0,"x_max":0,"o":"m 649 390 l 649 553 l 46 553 l 46 390 z "},"†":{"ha":764,"x_min":0,"x_max":0,"o":"m 692 515 l 692 696 l 485 696 l 485 926 l 279 926 l 279 696 l 72 696 l 72 515 l 279 515 l 279 -232 l 485 -232 l 485 515 z "},"‡":{"ha":764,"x_min":0,"x_max":0,"o":"m 692 -1 l 692 179 l 485 179 l 485 515 l 692 515 l 692 696 l 485 696 l 485 926 l 279 926 l 279 696 l 72 696 l 72 515 l 279 515 l 279 179 l 72 179 l 72 -1 l 279 -1 l 279 -232 l 485 -232 l 485 -1 z "},"·":{"ha":240,"x_min":0,"x_max":0,"o":"m 240 353 l 240 592 l 0 592 l 0 353 z "},"¶":{"ha":919,"x_min":0,"x_max":0,"o":"m 818 790 l 818 926 l 357 926 b 38 681 189 926 38 875 b 286 444 38 535 144 444 b 301 446 292 444 296 446 l 301 -128 l 451 -128 l 451 790 l 568 790 l 568 -128 l 717 -128 l 717 790 z "},"•":{"ha":926,"x_min":0,"x_max":0,"o":"m 654 472 b 464 667 654 576 569 667 b 272 472 357 667 272 578 b 464 278 272 367 357 278 b 654 472 569 278 654 368 z "},"‚":{"ha":364,"x_min":0,"x_max":0,"o":"m 290 -50 l 290 213 l 74 213 l 74 0 l 171 0 l 171 -43 b 74 -90 171 -97 110 -90 l 74 -201 l 163 -201 b 290 -50 249 -201 290 -128 z "},"„":{"ha":674,"x_min":0,"x_max":0,"o":"m 599 -50 l 599 213 l 383 213 l 383 0 l 481 0 l 481 -43 b 383 -90 481 -97 419 -90 l 383 -201 l 472 -201 b 599 -50 558 -201 599 -128 z m 290 -50 l 290 213 l 74 213 l 74 0 l 171 0 l 171 -43 b 74 -90 171 -97 110 -90 l 74 -201 l 163 -201 b 290 -50 249 -201 290 -128 z "},"”":{"ha":674,"x_min":0,"x_max":0,"o":"m 599 663 l 599 926 l 383 926 l 383 713 l 481 713 l 481 671 b 383 624 481 617 421 624 l 383 511 l 472 511 b 599 663 558 511 599 585 z m 290 663 l 290 926 l 74 926 l 74 713 l 171 713 l 171 671 b 74 624 171 617 111 624 l 74 511 l 163 511 b 290 663 249 511 290 585 z "},"»":{"ha":490,"x_min":0,"x_max":0,"o":"m 443 278 l 443 439 l 282 603 l 282 419 l 347 361 l 282 304 l 282 119 z m 217 278 l 217 439 l 56 603 l 56 419 l 119 361 l 56 304 l 56 119 z "},"…":{"ha":1092,"x_min":0,"x_max":0,"o":"m 1018 0 l 1018 213 l 801 213 l 801 0 z m 654 0 l 654 213 l 438 213 l 438 0 z m 290 0 l 290 213 l 74 213 l 74 0 z "},"‰":{"ha":1621,"x_min":0,"x_max":0,"o":"m 1579 206 b 1351 431 1579 336 1481 431 b 1125 203 1219 431 1125 333 b 1353 -18 1125 72 1224 -18 b 1579 206 1481 -18 1579 76 z m 1069 206 b 843 431 1069 335 972 431 b 615 203 711 431 615 335 b 843 -18 615 72 714 -18 b 1069 206 971 -18 1069 76 z m 824 926 l 676 926 l 288 0 l 435 0 z m 496 721 b 268 944 496 850 396 944 b 42 718 138 944 42 849 b 269 496 42 588 140 496 b 496 721 399 496 496 592 z m 1435 206 b 1353 119 1435 160 1400 119 b 1269 207 1304 119 1269 160 b 1353 292 1269 254 1306 292 b 1435 206 1399 292 1435 250 z m 925 206 b 843 119 925 158 892 119 b 760 207 794 119 760 160 b 843 292 760 253 796 292 b 925 206 890 292 925 251 z m 351 721 b 269 635 351 675 317 635 b 186 721 221 635 186 674 b 269 806 186 768 222 806 b 351 721 315 806 351 767 z "},"¿":{"ha":689,"x_min":0,"x_max":0,"o":"m 494 482 l 494 694 l 279 694 l 279 482 z m 669 61 l 669 85 l 440 85 b 354 -36 439 22 429 -36 b 282 42 304 -36 282 -6 b 494 400 282 163 494 224 l 279 400 b 42 15 264 267 42 219 b 342 -250 42 -147 189 -250 b 669 61 524 -250 669 -126 z "},"`":{"ha":694,"x_min":0,"x_max":0,"o":"m 478 857 l 207 1063 l 124 936 l 407 754 z "},"´":{"ha":694,"x_min":0,"x_max":0,"o":"m 571 936 l 488 1063 l 217 857 l 288 754 z "},"ˆ":{"ha":694,"x_min":0,"x_max":0,"o":"m 601 778 l 422 985 l 278 985 l 93 778 l 290 778 l 347 858 l 406 778 z "},"˜":{"ha":694,"x_min":0,"x_max":0,"o":"m 606 846 l 529 954 b 436 932 494 939 474 932 b 229 964 365 932 300 964 b 89 919 179 964 132 943 l 165 807 b 260 831 196 819 226 831 b 457 799 326 831 389 799 b 606 846 511 799 561 817 z "},"¯":{"ha":694,"x_min":0,"x_max":0,"o":"m 569 824 l 569 944 l 125 944 l 125 824 z "},"˘":{"ha":694,"x_min":0,"x_max":0,"o":"m 579 979 l 447 979 b 353 918 431 936 397 918 b 247 979 301 918 268 931 l 115 979 b 347 792 125 844 222 792 b 579 979 472 792 569 844 z "},"˙":{"ha":694,"x_min":0,"x_max":0,"o":"m 447 788 l 447 976 l 247 976 l 247 788 z "},"¨":{"ha":694,"x_min":0,"x_max":0,"o":"m 586 788 l 586 976 l 386 976 l 386 788 z m 308 788 l 308 976 l 108 976 l 108 788 z "},"˚":{"ha":694,"x_min":0,"x_max":0,"o":"m 504 919 b 347 1074 504 1006 432 1074 b 190 919 263 1074 190 1006 b 347 764 190 833 261 764 b 504 919 433 764 504 833 z m 407 919 b 347 857 407 886 381 857 b 288 919 313 857 288 886 b 347 981 288 953 314 981 b 407 919 381 981 407 951 z "},"¸":{"ha":694,"x_min":0,"x_max":0,"o":"m 482 -171 b 382 -68 482 -117 438 -68 b 354 -72 372 -68 364 -71 l 390 0 l 306 0 l 254 -108 l 315 -153 b 353 -133 326 -140 336 -133 b 396 -176 378 -133 396 -151 b 347 -224 396 -204 375 -224 b 304 -189 322 -224 314 -211 l 221 -189 b 347 -296 229 -261 276 -296 b 482 -171 419 -296 482 -246 z "},"˝":{"ha":694,"x_min":0,"x_max":0,"o":"m 654 954 l 551 1058 l 367 836 l 453 754 z m 421 954 l 318 1058 l 133 836 l 219 754 z "},"˛":{"ha":694,"x_min":0,"x_max":0,"o":"m 513 -237 l 513 -135 b 451 -150 492 -143 474 -150 b 388 -89 418 -150 388 -124 b 464 0 388 -44 429 -18 l 360 0 b 256 -136 313 -32 256 -72 b 404 -258 256 -219 329 -258 b 513 -237 444 -258 475 -250 z "},"ˇ":{"ha":694,"x_min":0,"x_max":0,"o":"m 601 985 l 404 985 l 347 906 l 289 985 l 93 985 l 272 778 l 417 778 z "},"—":{"ha":1065,"x_min":0,"x_max":0,"o":"m 1065 268 l 1065 444 l 0 444 l 0 268 z "},"Æ":{"ha":1192,"x_min":0,"x_max":0,"o":"m 1135 0 l 1135 208 l 846 208 l 846 367 l 1125 367 l 1125 575 l 846 575 l 846 718 l 1135 718 l 1135 926 l 607 926 l -37 0 l 250 0 l 350 154 l 619 154 l 619 0 z m 619 338 l 446 338 l 619 590 z "},"ª":{"ha":510,"x_min":0,"x_max":0,"o":"m 443 556 l 443 926 l 333 926 l 333 894 b 224 939 308 929 264 939 b 32 742 108 939 32 854 b 222 543 32 628 106 543 b 333 588 265 543 306 551 l 333 556 z m 433 413 l 433 458 l 42 458 l 42 413 z m 326 742 b 238 651 326 690 290 651 b 149 740 188 651 149 690 b 236 831 149 790 185 831 b 326 742 288 831 326 794 z "},"Ł":{"ha":607,"x_min":0,"x_max":0,"o":"m 589 0 l 589 208 l 315 208 l 315 418 l 488 536 l 488 733 l 315 615 l 315 926 l 79 926 l 79 497 l 0 440 l 0 243 l 79 300 l 79 0 z "},"Ø":{"ha":1057,"x_min":0,"x_max":0,"o":"m 1018 463 b 889 790 1018 597 974 690 b 886 794 888 792 888 793 l 967 903 l 819 1008 l 738 900 b 529 944 657 939 618 944 b 40 463 254 944 40 739 b 165 138 40 329 81 239 b 168 133 167 136 167 135 l 92 29 l 239 -79 l 317 26 b 321 24 318 25 319 24 b 526 -18 397 -10 443 -18 b 1018 463 799 -18 1018 188 z m 782 461 b 531 190 782 317 681 190 b 449 203 497 190 481 192 l 746 604 b 782 461 768 560 782 511 z m 607 724 l 310 324 b 276 467 288 367 276 419 b 529 736 276 611 379 736 b 607 724 560 736 578 735 z "},"Œ":{"ha":1349,"x_min":0,"x_max":0,"o":"m 1292 0 l 1292 208 l 1004 208 l 1004 367 l 1282 367 l 1282 575 l 1004 575 l 1004 718 l 1292 718 l 1292 926 l 776 926 l 776 865 b 525 944 694 925 625 944 b 40 461 251 944 40 736 b 521 -18 40 193 254 -18 b 776 60 617 -18 697 4 l 776 0 z m 775 467 b 524 190 775 318 679 190 b 276 461 375 190 276 319 b 526 736 276 608 371 736 b 775 467 679 736 775 614 z "},"º":{"ha":510,"x_min":0,"x_max":0,"o":"m 456 740 b 254 938 456 856 368 938 b 53 739 139 938 53 854 b 256 543 53 624 142 543 b 456 740 369 543 456 626 z m 447 413 l 447 458 l 63 458 l 63 413 z m 340 740 b 256 651 340 692 306 651 b 169 742 204 651 169 692 b 254 831 169 789 206 831 b 340 740 304 831 340 789 z "},"æ":{"ha":1360,"x_min":0,"x_max":0,"o":"m 1322 335 b 969 718 1322 536 1181 718 b 782 621 888 718 826 690 l 782 694 l 593 694 l 593 621 b 394 718 547 699 481 718 b 38 347 179 718 38 558 b 389 -24 38 136 171 -24 b 593 75 467 -24 558 -6 l 593 0 l 782 0 l 782 75 b 969 -24 826 4 886 -24 b 1188 60 1050 -24 1126 7 b 1299 219 1242 106 1271 154 l 1089 219 b 954 153 1049 175 1015 153 b 796 282 874 153 807 200 l 1317 282 b 1322 335 1322 301 1322 315 z m 1117 421 l 800 421 b 961 542 814 499 886 542 b 1117 421 1043 542 1094 500 z m 593 347 b 422 171 593 249 522 171 b 246 347 324 171 246 249 b 415 524 246 443 317 524 b 593 347 519 524 593 453 z "},"ı":{"ha":347,"x_min":0,"x_max":0,"o":"m 278 0 l 278 694 l 69 694 l 69 0 z "},"ł":{"ha":347,"x_min":0,"x_max":0,"o":"m 347 501 l 347 646 l 278 593 l 278 926 l 69 926 l 69 497 l 0 444 l 0 300 l 69 353 l 69 0 l 278 0 l 278 449 z "},"ø":{"ha":826,"x_min":0,"x_max":0,"o":"m 788 346 b 699 592 788 440 758 519 l 776 696 l 643 792 l 567 689 b 415 718 508 711 478 718 b 38 346 200 718 38 564 b 126 99 38 256 67 167 l 50 -4 l 182 -104 l 263 6 b 414 -24 321 -17 351 -24 b 788 346 625 -24 788 133 z m 579 349 b 413 171 579 251 513 171 b 382 175 403 171 392 172 l 565 421 b 579 349 575 394 579 378 z m 449 519 l 263 271 b 246 347 250 300 246 315 b 414 524 246 442 317 524 b 449 519 425 524 438 522 z "},"œ":{"ha":1342,"x_min":0,"x_max":0,"o":"m 1304 340 b 938 718 1304 546 1147 718 b 676 599 844 718 732 676 b 411 718 613 686 517 718 b 38 346 193 718 38 565 b 407 -24 38 132 193 -24 b 614 38 478 -24 556 -4 b 676 101 639 56 657 78 b 938 -24 744 11 826 -24 b 1279 217 1093 -24 1222 75 l 1068 217 b 933 153 1028 174 993 153 b 776 282 853 153 785 199 l 1297 282 b 1304 340 1301 301 1304 321 z m 1096 421 l 782 421 b 939 542 797 497 864 542 b 1096 421 1015 542 1079 497 z m 582 347 b 415 171 582 254 511 171 b 246 349 318 171 246 254 b 414 524 246 443 318 524 b 582 347 508 524 582 440 z "},"ß":{"ha":857,"x_min":0,"x_max":0,"o":"m 819 285 b 625 526 819 401 738 500 b 714 689 685 568 714 615 b 419 950 714 846 567 950 b 144 828 317 950 214 904 b 65 535 67 740 65 646 l 65 0 l 274 0 l 274 81 b 496 -24 340 10 396 -24 b 819 285 668 -24 819 108 z m 611 285 b 497 171 611 221 561 171 b 389 261 436 171 406 204 l 274 261 l 274 593 b 397 756 274 676 301 756 b 506 654 457 756 506 717 b 400 557 506 590 461 557 l 358 557 l 358 401 l 471 401 b 611 285 544 401 611 365 z "},"Ð":{"ha":919,"x_min":0,"x_max":0,"o":"m 881 472 b 636 886 881 649 800 810 b 390 926 560 922 474 926 l 79 926 l 79 565 l 0 565 l 0 399 l 79 399 l 79 0 l 443 0 b 881 472 724 0 881 204 z m 644 460 b 417 208 644 310 574 208 l 315 208 l 315 399 l 486 399 l 486 565 l 315 565 l 315 718 l 418 718 b 644 460 576 718 644 607 z "},"ð":{"ha":826,"x_min":0,"x_max":0,"o":"m 789 342 b 599 825 789 511 688 686 l 693 854 l 642 936 l 543 906 b 486 976 526 932 507 954 l 354 940 b 410 860 375 914 393 888 l 322 832 l 364 750 l 451 778 b 506 669 472 743 489 706 b 383 697 460 689 433 697 b 38 344 179 697 38 547 b 411 -22 38 129 197 -22 b 663 63 504 -22 592 1 b 789 342 743 131 789 236 z m 581 338 b 417 171 581 246 510 171 b 246 349 311 171 246 244 b 411 519 246 449 308 519 b 581 338 517 519 581 439 z "},"Š":{"ha":717,"x_min":0,"x_max":0,"o":"m 650 1226 l 429 1226 l 368 1138 l 304 1226 l 85 1226 l 263 1018 l 468 1018 z m 681 271 b 272 675 681 561 272 532 b 353 747 272 718 313 747 b 438 657 411 747 431 710 l 672 657 b 610 839 668 729 657 783 b 360 946 549 911 453 946 b 36 669 200 946 36 843 b 240 414 36 539 129 463 b 347 371 275 399 311 386 b 446 268 392 351 446 324 b 354 181 446 218 403 181 b 257 306 283 181 257 244 l 19 306 l 19 276 b 357 -18 19 78 172 -18 b 681 271 543 -18 681 74 z "},"š":{"ha":618,"x_min":0,"x_max":0,"o":"m 563 1004 l 365 1004 l 308 924 l 250 1004 l 54 1004 l 233 796 l 378 796 z m 586 210 b 236 507 586 465 236 396 b 301 551 236 540 275 551 b 361 500 338 551 358 538 l 565 500 b 519 625 561 550 551 585 b 308 718 468 689 389 718 b 28 490 178 718 28 636 b 176 299 28 400 90 322 b 282 271 211 289 247 281 b 315 261 293 268 306 267 b 378 199 321 256 378 244 b 308 144 378 164 339 144 b 228 207 265 144 233 163 l 21 207 b 93 51 28 140 44 97 b 297 -24 149 0 222 -24 b 586 210 432 -24 586 58 z "},"Ý":{"ha":760,"x_min":0,"x_max":0,"o":"m 647 1136 l 576 1294 l 243 1114 l 304 986 z m 774 926 l 519 926 l 381 554 l 243 926 l -14 926 l 263 338 l 263 0 l 499 0 l 499 338 z "},"ý":{"ha":689,"x_min":0,"x_max":0,"o":"m 576 936 l 494 1063 l 224 857 l 294 754 z m 703 694 l 482 694 l 347 292 l 207 694 l -14 694 l 244 35 l 135 -232 l 354 -232 z "},"Þ":{"ha":803,"x_min":0,"x_max":0,"o":"m 775 492 b 667 738 775 585 739 678 b 306 806 571 817 422 806 l 306 926 l 79 926 l 79 0 l 306 0 l 306 171 b 678 251 432 171 578 158 b 775 492 743 313 775 403 z m 539 490 b 503 408 539 458 526 431 b 401 379 472 381 442 379 l 306 379 l 306 597 l 392 597 b 499 575 425 597 471 596 b 539 490 524 556 539 522 z "},"þ":{"ha":863,"x_min":0,"x_max":0,"o":"m 825 338 b 486 718 825 542 703 718 b 278 635 397 718 342 696 l 278 926 l 69 926 l 69 -232 l 278 -232 l 278 64 b 483 -24 333 3 401 -24 b 825 338 686 -24 825 140 z m 617 351 b 442 171 617 250 546 171 b 267 351 339 171 267 250 b 442 524 267 450 344 524 b 617 351 538 524 617 449 z "},"Ž":{"ha":635,"x_min":0,"x_max":0,"o":"m 606 1226 l 385 1226 l 322 1138 l 260 1226 l 40 1226 l 217 1018 l 422 1018 z m 608 0 l 608 208 l 313 208 l 608 735 l 608 926 l 24 926 l 24 718 l 343 718 l 24 156 l 24 0 z "},"ž":{"ha":563,"x_min":0,"x_max":0,"o":"m 542 1004 l 344 1004 l 288 924 l 229 1004 l 33 1004 l 213 796 l 357 796 z m 540 0 l 540 157 l 268 157 l 540 536 l 540 694 l 24 694 l 24 538 l 317 538 l 24 142 l 24 0 z "},"½":{"ha":1250,"x_min":0,"x_max":0,"o":"m 1207 0 l 1207 124 l 1008 124 b 1203 403 1094 193 1203 282 b 996 567 1203 514 1093 567 b 807 481 924 567 850 540 b 771 350 778 440 772 399 l 924 350 b 989 438 925 394 936 438 b 1043 388 1018 438 1043 418 b 849 157 1043 306 911 197 b 776 114 825 142 800 128 l 776 0 z m 883 926 l 756 926 l 367 0 l 494 0 z m 361 371 l 361 926 l 103 926 l 103 803 l 201 803 l 201 371 z "},"¼":{"ha":1251,"x_min":0,"x_max":0,"o":"m 1233 97 l 1233 213 l 1167 213 l 1167 556 l 1019 556 l 749 204 l 749 97 l 1014 97 l 1014 0 l 1167 0 l 1167 97 z m 883 926 l 756 926 l 367 0 l 494 0 z m 361 371 l 361 926 l 103 926 l 103 803 l 201 803 l 201 371 z m 1029 207 l 906 207 l 1029 382 z "},"¹":{"ha":519,"x_min":0,"x_max":0,"o":"m 361 371 l 361 926 l 103 926 l 103 803 l 201 803 l 201 371 z "},"¾":{"ha":1249,"x_min":0,"x_max":0,"o":"m 1231 97 l 1231 213 l 1164 213 l 1164 556 l 1017 556 l 747 204 l 747 97 l 1011 97 l 1011 0 l 1164 0 l 1164 97 z m 882 926 l 754 926 l 365 0 l 492 0 z m 479 536 b 371 668 479 604 432 649 b 446 786 418 693 446 732 b 253 938 446 888 342 938 b 44 760 143 938 47 878 l 201 760 b 249 807 203 790 218 807 b 288 761 275 807 288 785 b 185 701 288 700 229 701 l 185 593 b 321 540 226 593 321 606 b 257 488 321 504 290 488 b 190 539 221 488 199 503 l 29 539 b 57 446 32 504 39 475 b 254 358 97 383 183 358 b 479 536 356 358 479 421 z m 1026 207 l 904 207 l 1026 382 z "},"³":{"ha":517,"x_min":0,"x_max":0,"o":"m 479 536 b 371 668 479 604 432 649 b 446 786 418 693 446 732 b 253 938 446 888 342 938 b 44 760 143 938 47 878 l 201 760 b 249 807 203 790 218 807 b 288 761 275 807 288 785 b 185 701 288 700 229 701 l 185 593 b 321 540 226 593 321 606 b 257 488 321 504 290 488 b 190 539 221 488 199 503 l 29 539 b 57 446 32 504 39 475 b 254 358 97 383 183 358 b 479 536 356 358 479 421 z "},"²":{"ha":519,"x_min":0,"x_max":0,"o":"m 476 371 l 476 494 l 278 494 b 472 774 363 564 472 653 b 265 938 472 885 363 938 b 76 851 193 938 119 911 b 40 721 46 810 42 771 l 193 721 b 258 808 194 765 206 808 b 313 758 288 808 313 789 b 118 528 313 676 181 568 b 46 485 94 513 69 499 l 46 371 z "},"¦":{"ha":694,"x_min":0,"x_max":0,"o":"m 463 433 l 463 926 l 233 926 l 233 433 z m 463 -232 l 463 213 l 233 213 l 233 -232 z "},"−":{"ha":764,"x_min":0,"x_max":0,"o":"m 707 385 l 707 542 l 58 542 l 58 385 z "},"×":{"ha":764,"x_min":0,"x_max":0,"o":"m 682 272 l 490 463 l 682 654 l 574 763 l 382 572 l 190 763 l 82 654 l 274 463 l 82 272 l 190 163 l 382 354 l 574 163 z "},"Ä":{"ha":917,"x_min":0,"x_max":0,"o":"m 718 1018 l 718 1226 l 500 1226 l 500 1018 z m 417 1018 l 417 1226 l 199 1226 l 199 1018 z m 922 0 l 554 926 l 367 926 l -4 0 l 250 0 l 299 135 l 621 135 l 665 0 z m 557 322 l 364 322 l 461 639 z "},"Å":{"ha":917,"x_min":0,"x_max":0,"o":"m 619 1150 b 458 1308 619 1239 546 1308 b 299 1150 371 1308 299 1239 b 458 990 299 1063 371 990 b 619 1150 546 990 619 1063 z m 922 0 l 554 926 l 367 926 l -4 0 l 250 0 l 299 135 l 621 135 l 665 0 z m 517 1150 b 458 1090 517 1118 492 1090 b 401 1150 426 1090 401 1118 b 458 1210 401 1182 425 1210 b 517 1150 492 1210 517 1182 z m 557 322 l 364 322 l 461 639 z "},"Ç":{"ha":1022,"x_min":0,"x_max":0,"o":"m 996 346 l 749 346 b 525 190 704 254 631 190 b 276 465 374 190 276 322 b 524 736 276 608 374 736 b 749 574 628 736 713 669 l 996 574 b 936 721 986 638 971 667 b 525 944 844 865 696 944 b 40 465 256 944 40 736 b 454 -14 40 225 215 19 b 458 -14 456 -14 457 -14 l 408 -111 l 479 -154 b 519 -135 490 -142 501 -135 b 567 -181 546 -135 567 -154 b 521 -226 567 -207 547 -226 b 471 -192 494 -226 481 -217 l 374 -192 b 514 -318 382 -272 433 -318 b 667 -171 599 -318 667 -258 b 558 -62 667 -108 621 -62 b 532 -65 550 -62 540 -64 l 557 -18 b 996 346 774 -18 946 140 z "},"É":{"ha":651,"x_min":0,"x_max":0,"o":"m 538 1136 l 468 1294 l 135 1114 l 196 986 z m 593 0 l 593 208 l 306 208 l 306 367 l 585 367 l 585 575 l 306 575 l 306 718 l 593 718 l 593 926 l 79 926 l 79 0 z "},"Ñ":{"ha":939,"x_min":0,"x_max":0,"o":"m 756 1092 l 667 1214 b 556 1185 628 1194 599 1185 b 349 1214 486 1185 419 1214 b 183 1158 289 1214 232 1192 l 281 1035 b 383 1067 315 1051 344 1067 b 586 1035 451 1067 517 1035 b 756 1092 644 1035 707 1060 z m 860 0 l 860 926 l 633 926 l 643 343 l 282 926 l 79 926 l 79 0 l 306 0 l 296 563 l 654 0 z "},"Ö":{"ha":1057,"x_min":0,"x_max":0,"o":"m 788 1018 l 788 1226 l 571 1226 l 571 1018 z m 488 1018 l 488 1226 l 269 1226 l 269 1018 z m 1018 463 b 526 944 1018 738 799 944 b 40 461 253 944 40 736 b 526 -18 40 189 256 -18 b 1018 463 797 -18 1018 188 z m 782 461 b 532 190 782 318 681 190 b 276 465 378 190 276 317 b 529 736 276 611 378 736 b 782 461 682 736 782 607 z "},"Ü":{"ha":850,"x_min":0,"x_max":0,"o":"m 685 1018 l 685 1226 l 467 1226 l 467 1018 z m 383 1018 l 383 1226 l 165 1226 l 165 1018 z m 781 365 l 781 926 l 544 926 l 544 365 b 426 190 544 275 536 190 b 306 365 321 190 306 278 l 306 926 l 69 926 l 69 365 b 163 81 69 250 78 165 b 426 -18 233 10 328 -18 b 689 82 526 -18 618 10 b 781 365 768 163 781 256 z "},"á":{"ha":871,"x_min":0,"x_max":0,"o":"m 614 936 l 532 1063 l 261 857 l 332 754 z m 801 0 l 801 694 l 606 694 l 606 621 b 394 719 561 700 479 719 b 38 347 178 719 38 560 b 390 -24 38 135 172 -24 b 606 75 472 -24 565 -6 l 606 0 z m 593 349 b 419 171 593 247 522 171 b 246 347 321 171 246 249 b 418 524 246 444 319 524 b 593 349 518 524 593 449 z "},"à":{"ha":871,"x_min":0,"x_max":0,"o":"m 611 857 l 339 1063 l 257 936 l 540 754 z m 801 0 l 801 694 l 606 694 l 606 621 b 394 719 561 700 479 719 b 38 347 178 719 38 560 b 390 -24 38 135 172 -24 b 606 75 472 -24 565 -6 l 606 0 z m 593 349 b 419 171 593 247 522 171 b 246 347 321 171 246 249 b 418 524 246 444 319 524 b 593 349 518 524 593 449 z "},"â":{"ha":871,"x_min":0,"x_max":0,"o":"m 678 778 l 497 985 l 353 985 l 168 778 l 367 778 l 424 858 l 481 778 z m 801 0 l 801 694 l 606 694 l 606 621 b 394 719 561 700 479 719 b 38 347 178 719 38 560 b 390 -24 38 135 172 -24 b 606 75 472 -24 565 -6 l 606 0 z m 593 349 b 419 171 593 247 522 171 b 246 347 321 171 246 249 b 418 524 246 444 319 524 b 593 349 518 524 593 449 z "},"ä":{"ha":871,"x_min":0,"x_max":0,"o":"m 686 788 l 686 976 l 488 976 l 488 788 z m 408 788 l 408 976 l 210 976 l 210 788 z m 801 0 l 801 694 l 606 694 l 606 621 b 394 719 561 700 479 719 b 38 347 178 719 38 560 b 390 -24 38 135 172 -24 b 606 75 472 -24 565 -6 l 606 0 z m 593 349 b 419 171 593 247 522 171 b 246 347 321 171 246 249 b 418 524 246 444 319 524 b 593 349 518 524 593 449 z "},"ã":{"ha":871,"x_min":0,"x_max":0,"o":"m 694 854 l 615 960 b 513 935 576 943 554 935 b 322 960 449 935 386 960 b 176 911 269 960 221 936 l 257 800 b 356 828 289 814 319 828 b 540 801 418 828 478 801 b 694 854 596 801 649 822 z m 801 0 l 801 694 l 606 694 l 606 621 b 394 719 561 700 479 719 b 38 347 178 719 38 560 b 390 -24 38 135 172 -24 b 606 75 472 -24 565 -6 l 606 0 z m 593 349 b 419 171 593 247 522 171 b 246 347 321 171 246 249 b 418 524 246 444 319 524 b 593 349 518 524 593 449 z "},"å":{"ha":871,"x_min":0,"x_max":0,"o":"m 590 919 b 433 1074 590 1006 519 1074 b 278 919 349 1074 278 1006 b 433 764 278 833 347 764 b 590 919 519 764 590 833 z m 801 0 l 801 694 l 606 694 l 606 621 b 394 719 561 700 479 719 b 38 347 178 719 38 560 b 390 -24 38 135 172 -24 b 606 75 472 -24 565 -6 l 606 0 z m 493 919 b 433 857 493 886 468 857 b 374 919 400 857 374 886 b 433 981 374 951 400 981 b 493 919 467 981 493 953 z m 593 349 b 419 171 593 247 522 171 b 246 347 321 171 246 249 b 418 524 246 444 319 524 b 593 349 518 524 593 449 z "},"ç":{"ha":797,"x_min":0,"x_max":0,"o":"m 774 264 l 564 264 b 411 171 526 206 482 171 b 246 344 311 171 246 247 b 411 524 246 442 310 524 b 563 426 478 524 536 488 l 772 426 b 404 718 736 603 582 718 b 38 349 197 718 38 556 b 354 -19 38 164 171 7 l 311 -108 l 372 -153 b 410 -133 383 -140 393 -133 b 453 -176 435 -133 453 -151 b 404 -224 453 -206 432 -224 b 363 -189 381 -224 369 -211 l 278 -189 b 404 -296 288 -260 333 -296 b 539 -171 476 -296 539 -246 b 439 -68 539 -117 494 -68 b 411 -72 429 -68 419 -71 l 436 -22 b 774 264 600 -12 736 104 z "},"é":{"ha":803,"x_min":0,"x_max":0,"o":"m 569 936 l 486 1063 l 215 857 l 286 754 z m 765 339 b 399 718 765 549 613 718 b 38 346 193 718 38 547 b 403 -24 38 143 199 -24 b 740 217 560 -24 681 76 l 529 217 l 519 207 b 392 153 481 168 447 153 b 239 282 313 153 249 201 l 760 282 b 765 339 764 301 765 319 z m 557 421 l 244 421 b 400 542 261 499 322 542 b 557 421 475 542 542 497 z "},"è":{"ha":803,"x_min":0,"x_max":0,"o":"m 588 857 l 317 1063 l 233 936 l 517 754 z m 765 339 b 399 718 765 549 613 718 b 38 346 193 718 38 547 b 403 -24 38 143 199 -24 b 740 217 560 -24 681 76 l 529 217 l 519 207 b 392 153 481 168 447 153 b 239 282 313 153 249 201 l 760 282 b 765 339 764 301 765 319 z m 557 421 l 244 421 b 400 542 261 499 322 542 b 557 421 475 542 542 497 z "},"ê":{"ha":803,"x_min":0,"x_max":0,"o":"m 656 778 l 476 985 l 332 985 l 147 778 l 344 778 l 401 858 l 460 778 z m 765 339 b 399 718 765 549 613 718 b 38 346 193 718 38 547 b 403 -24 38 143 199 -24 b 740 217 560 -24 681 76 l 529 217 l 519 207 b 392 153 481 168 447 153 b 239 282 313 153 249 201 l 760 282 b 765 339 764 301 765 319 z m 557 421 l 244 421 b 400 542 261 499 322 542 b 557 421 475 542 542 497 z "},"ë":{"ha":803,"x_min":0,"x_max":0,"o":"m 646 788 l 646 976 l 446 976 l 446 788 z m 368 788 l 368 976 l 168 976 l 168 788 z m 765 339 b 399 718 765 549 613 718 b 38 346 193 718 38 547 b 403 -24 38 143 199 -24 b 740 217 560 -24 681 76 l 529 217 l 519 207 b 392 153 481 168 447 153 b 239 282 313 153 249 201 l 760 282 b 765 339 764 301 765 319 z m 557 421 l 244 421 b 400 542 261 499 322 542 b 557 421 475 542 542 497 z "},"í":{"ha":347,"x_min":0,"x_max":0,"o":"m 350 936 l 268 1063 l -3 857 l 68 754 z m 278 0 l 278 694 l 69 694 l 69 0 z "},"ì":{"ha":347,"x_min":0,"x_max":0,"o":"m 350 857 l 79 1063 l -3 936 l 279 754 z m 278 0 l 278 694 l 69 694 l 69 0 z "},"î":{"ha":347,"x_min":0,"x_max":0,"o":"m 350 778 l 225 985 l 125 985 l -3 778 l 125 778 l 174 876 l 224 778 z m 278 0 l 278 694 l 69 694 l 69 0 z "},"ï":{"ha":347,"x_min":0,"x_max":0,"o":"m 346 796 l 346 967 l 207 967 l 207 796 z m 140 796 l 140 967 l 1 967 l 1 796 z m 278 0 l 278 694 l 69 694 l 69 0 z "},"ñ":{"ha":778,"x_min":0,"x_max":0,"o":"m 649 854 l 568 960 b 465 935 529 943 508 935 b 276 960 401 935 340 960 b 129 911 224 960 175 936 l 210 800 b 310 828 243 815 274 828 b 493 801 372 828 431 801 b 649 854 550 801 603 822 z m 713 0 l 713 435 b 643 647 713 521 707 585 b 457 718 594 694 525 718 b 267 621 372 718 315 690 l 267 694 l 69 694 l 69 0 l 278 0 l 278 388 b 396 524 278 468 308 524 b 504 379 486 524 504 457 l 504 0 z "},"ó":{"ha":826,"x_min":0,"x_max":0,"o":"m 581 936 l 499 1063 l 226 857 l 297 754 z m 788 347 b 413 718 788 561 625 718 b 38 343 196 718 38 560 b 414 -24 38 128 201 -24 b 788 347 626 -24 788 133 z m 579 347 b 414 171 579 251 513 171 b 246 349 314 171 246 251 b 414 524 246 443 317 524 b 579 347 511 524 579 440 z "},"ò":{"ha":826,"x_min":0,"x_max":0,"o":"m 599 857 l 328 1063 l 246 936 l 528 754 z m 788 347 b 413 718 788 561 625 718 b 38 343 196 718 38 560 b 414 -24 38 128 201 -24 b 788 347 626 -24 788 133 z m 579 347 b 414 171 579 251 513 171 b 246 349 314 171 246 251 b 414 524 246 443 317 524 b 579 347 511 524 579 440 z "},"ô":{"ha":826,"x_min":0,"x_max":0,"o":"m 668 778 l 488 985 l 343 985 l 158 778 l 357 778 l 414 858 l 471 778 z m 788 347 b 413 718 788 561 625 718 b 38 343 196 718 38 560 b 414 -24 38 128 201 -24 b 788 347 626 -24 788 133 z m 579 347 b 414 171 579 251 513 171 b 246 349 314 171 246 251 b 414 524 246 443 317 524 b 579 347 511 524 579 440 z "},"ö":{"ha":826,"x_min":0,"x_max":0,"o":"m 651 788 l 651 976 l 453 976 l 453 788 z m 374 788 l 374 976 l 175 976 l 175 788 z m 788 347 b 413 718 788 561 625 718 b 38 343 196 718 38 560 b 414 -24 38 128 201 -24 b 788 347 626 -24 788 133 z m 579 347 b 414 171 579 251 513 171 b 246 349 314 171 246 251 b 414 524 246 443 317 524 b 579 347 511 524 579 440 z "},"õ":{"ha":826,"x_min":0,"x_max":0,"o":"m 672 854 l 592 960 b 490 935 554 943 532 935 b 300 960 426 935 364 960 b 154 911 247 960 199 936 l 235 800 b 333 828 267 815 297 828 b 518 801 396 828 456 801 b 672 854 574 801 626 822 z m 788 347 b 413 718 788 561 625 718 b 38 343 196 718 38 560 b 414 -24 38 128 201 -24 b 788 347 626 -24 788 133 z m 579 347 b 414 171 579 251 513 171 b 246 349 314 171 246 251 b 414 524 246 443 317 524 b 579 347 511 524 579 440 z "},"ú":{"ha":781,"x_min":0,"x_max":0,"o":"m 558 936 l 475 1063 l 204 857 l 275 754 z m 711 0 l 711 694 l 503 694 l 503 307 b 385 171 503 231 468 171 b 274 307 296 171 274 226 l 274 694 l 65 694 l 65 279 b 128 64 65 193 69 131 b 331 -24 181 3 251 -24 b 514 74 410 -24 476 -1 l 514 0 z "},"ù":{"ha":781,"x_min":0,"x_max":0,"o":"m 576 857 l 306 1063 l 222 936 l 506 754 z m 711 0 l 711 694 l 503 694 l 503 307 b 385 171 503 231 468 171 b 274 307 296 171 274 226 l 274 694 l 65 694 l 65 279 b 128 64 65 193 69 131 b 331 -24 181 3 251 -24 b 514 74 410 -24 476 -1 l 514 0 z "},"û":{"ha":781,"x_min":0,"x_max":0,"o":"m 644 778 l 465 985 l 321 985 l 136 778 l 333 778 l 390 858 l 449 778 z m 711 0 l 711 694 l 503 694 l 503 307 b 385 171 503 231 468 171 b 274 307 296 171 274 226 l 274 694 l 65 694 l 65 279 b 128 64 65 193 69 131 b 331 -24 181 3 251 -24 b 514 74 410 -24 476 -1 l 514 0 z "},"ü":{"ha":781,"x_min":0,"x_max":0,"o":"m 626 788 l 626 976 l 428 976 l 428 788 z m 349 788 l 349 976 l 150 976 l 150 788 z m 711 0 l 711 694 l 503 694 l 503 307 b 385 171 503 231 468 171 b 274 307 296 171 274 226 l 274 694 l 65 694 l 65 279 b 128 64 65 193 69 131 b 331 -24 181 3 251 -24 b 514 74 410 -24 476 -1 l 514 0 z "},"°":{"ha":694,"x_min":0,"x_max":0,"o":"m 561 708 b 347 918 561 825 463 918 b 133 708 232 918 133 825 b 347 497 133 590 231 497 b 561 708 464 497 561 590 z m 456 708 b 347 601 456 649 406 601 b 239 708 289 601 239 649 b 347 814 239 768 289 814 b 456 708 406 814 456 768 z "},"®":{"ha":713,"x_min":0,"x_max":0,"o":"m 651 774 b 357 1068 651 936 519 1068 b 63 774 194 1068 63 936 b 357 479 63 611 194 479 b 651 774 519 479 651 611 z m 596 774 b 357 533 596 642 490 533 b 117 774 224 533 117 640 b 357 1013 117 907 225 1013 b 596 774 489 1013 596 906 z m 496 621 l 410 722 b 483 819 456 732 483 774 b 343 926 483 906 418 926 l 239 926 l 239 621 l 325 621 l 325 714 l 394 621 z m 401 814 b 350 775 401 785 375 775 l 322 775 l 322 853 l 350 853 b 401 814 376 853 401 844 z "},"©":{"ha":1038,"x_min":0,"x_max":0,"o":"m 1000 463 b 518 944 1000 729 785 944 b 38 463 251 944 38 728 b 518 -18 38 197 253 -18 b 1000 463 783 -18 1000 196 z m 914 463 b 518 64 914 243 738 64 b 122 463 299 64 122 244 b 518 863 122 681 299 863 b 914 463 739 863 914 682 z m 814 393 l 661 393 b 522 299 633 336 588 299 b 369 464 431 299 369 376 b 522 626 369 553 431 626 b 661 529 586 626 638 588 l 814 529 b 522 751 792 664 653 751 b 224 464 360 751 224 629 b 525 174 224 296 361 174 b 814 393 661 174 781 260 z "},"™":{"ha":1135,"x_min":0,"x_max":0,"o":"m 1061 399 l 1061 926 l 860 926 l 749 594 l 635 926 l 436 926 l 436 399 l 582 399 l 578 763 l 696 399 l 800 399 l 919 763 l 914 399 z m 403 800 l 403 926 l 14 926 l 14 800 l 129 800 l 129 399 l 288 399 l 288 800 z "},"≠":{"ha":694,"x_min":0,"x_max":0,"o":"m 649 242 l 649 400 l 385 400 l 433 494 l 649 494 l 649 653 l 504 653 l 579 803 l 440 803 l 365 653 l 47 653 l 47 494 l 293 494 l 244 400 l 47 400 l 47 242 l 174 242 l 107 107 l 246 107 l 314 242 z "},"∞":{"ha":926,"x_min":0,"x_max":0,"o":"m 903 472 b 676 697 903 606 808 697 b 460 586 589 697 515 651 b 247 697 401 650 338 697 b 24 471 115 697 24 601 b 249 246 24 339 117 246 b 468 357 340 246 408 290 b 678 246 522 292 590 246 b 903 472 810 246 903 340 z m 721 472 b 649 404 721 432 688 404 b 550 471 604 404 574 438 b 649 539 574 504 604 539 b 721 472 686 539 721 511 z m 376 471 b 278 403 353 439 321 403 b 204 471 240 403 204 432 b 276 539 204 510 239 539 b 376 471 321 539 351 504 z "},"±":{"ha":694,"x_min":0,"x_max":0,"o":"m 649 494 l 649 657 l 435 657 l 435 871 l 260 871 l 260 657 l 46 657 l 46 494 l 260 494 l 260 281 l 435 281 l 435 494 z m 649 71 l 649 233 l 46 233 l 46 71 z "},"≤":{"ha":694,"x_min":0,"x_max":0,"o":"m 649 201 l 647 365 l 232 563 l 649 760 l 649 925 l 46 638 l 46 489 z m 649 4 l 649 163 l 46 163 l 46 4 z "},"≥":{"ha":694,"x_min":0,"x_max":0,"o":"m 649 489 l 649 636 l 46 925 l 47 760 l 463 564 l 46 365 l 46 201 z m 649 4 l 649 163 l 46 163 l 46 4 z "},"µ":{"ha":694,"x_min":0,"x_max":0,"o":"m 658 0 l 658 667 l 483 667 l 483 318 b 351 125 483 226 463 125 b 214 313 239 125 214 217 l 214 667 l 39 667 l 39 -240 l 214 -240 l 214 71 b 347 -14 244 17 283 -14 b 483 81 417 -14 454 21 l 483 0 z "},"∂":{"ha":694,"x_min":0,"x_max":0,"o":"m 675 372 b 499 775 675 528 618 672 b 101 924 385 875 249 907 l 79 771 b 471 535 244 754 400 697 b 300 600 425 582 365 600 b 14 306 135 600 14 468 b 335 -12 14 126 157 -12 b 675 372 560 -12 675 163 z m 483 301 b 339 146 483 217 426 146 b 194 301 251 146 194 218 b 282 442 194 361 225 417 b 324 453 292 446 313 453 l 338 453 b 483 301 425 453 483 386 z "},"∑":{"ha":926,"x_min":0,"x_max":0,"o":"m 872 -347 l 872 -1 l 707 -1 l 696 -189 l 228 -189 l 575 371 l 228 883 l 683 883 l 701 700 l 860 700 l 860 1042 l 29 1042 l 29 865 l 368 371 l 29 -171 l 29 -347 z "},"∏":{"ha":1015,"x_min":0,"x_max":0,"o":"m 961 -347 l 961 -189 l 847 -189 l 847 883 l 961 883 l 961 1042 l 56 1042 l 56 883 l 171 883 l 171 -189 l 56 -189 l 56 -347 l 457 -347 l 457 -189 l 347 -189 l 347 883 l 668 883 l 668 -189 l 557 -189 l 557 -347 z "},"π":{"ha":919,"x_min":0,"x_max":0,"o":"m 867 511 l 867 669 l 51 669 l 51 511 l 158 511 l 158 0 l 333 0 l 333 511 l 586 511 l 586 0 l 763 0 l 763 511 z "},"∫":{"ha":694,"x_min":0,"x_max":0,"o":"m 626 1028 b 501 1042 585 1035 544 1042 b 306 961 424 1042 357 1024 b 258 781 261 906 260 849 b 257 667 257 743 257 704 l 257 -6 l 257 -67 b 176 -190 257 -133 257 -190 b 100 -176 149 -190 126 -185 l 68 -333 b 196 -347 111 -342 153 -347 b 389 -265 274 -347 339 -326 b 436 -86 433 -211 435 -153 b 438 28 438 -47 438 -10 l 438 610 l 438 701 l 438 786 b 517 885 438 843 453 885 b 594 871 544 885 568 879 z "},"Ω":{"ha":926,"x_min":0,"x_max":0,"o":"m 886 0 l 886 158 l 694 158 b 790 233 729 181 763 203 b 886 508 861 311 886 406 b 463 949 886 754 714 949 b 39 508 211 949 39 754 b 92 292 39 433 54 357 b 232 158 128 229 172 196 l 40 158 l 40 0 l 415 0 l 415 140 b 224 489 276 217 224 333 b 464 790 224 632 303 790 b 703 489 625 790 703 631 b 651 269 703 415 689 333 b 513 140 617 208 574 175 l 513 0 z "},"¬":{"ha":694,"x_min":0,"x_max":0,"o":"m 649 0 l 649 371 l 46 371 l 46 213 l 472 213 l 472 0 z "},"√":{"ha":926,"x_min":0,"x_max":0,"o":"m 926 990 l 926 1149 l 524 1149 l 400 621 b 336 214 369 489 344 350 l 322 214 b 301 415 319 279 315 351 l 275 536 l 0 536 l 0 378 l 131 378 l 211 0 l 443 0 l 676 990 z "},"≈":{"ha":694,"x_min":0,"x_max":0,"o":"m 685 672 l 585 729 b 483 657 560 685 538 657 b 219 728 407 657 307 728 b 10 536 99 728 50 633 l 107 472 b 208 558 131 519 150 558 b 325 525 246 558 290 538 b 465 488 365 511 422 488 b 556 510 497 488 528 496 b 685 672 625 544 653 604 z m 685 393 l 585 450 b 485 378 560 407 538 378 b 219 449 407 378 307 449 b 10 257 99 449 50 354 l 107 193 b 208 279 131 239 151 279 b 325 246 246 279 290 258 b 465 208 365 232 422 208 b 556 231 497 208 528 217 b 685 393 625 265 653 325 z "},"Δ":{"ha":926,"x_min":0,"x_max":0,"o":"m 903 0 l 556 926 l 365 926 l 24 0 z m 647 160 l 275 160 l 461 711 z "}," ":{"ha":463,"x_min":0,"x_max":0,"o":""},"À":{"ha":917,"x_min":0,"x_max":0,"o":"m 661 1114 l 326 1294 l 257 1136 l 599 986 z m 922 0 l 554 926 l 367 926 l -4 0 l 250 0 l 299 135 l 621 135 l 665 0 z m 557 322 l 364 322 l 461 639 z "},"Ã":{"ha":917,"x_min":0,"x_max":0,"o":"m 744 1092 l 656 1214 b 544 1185 617 1194 588 1185 b 339 1214 475 1185 408 1214 b 172 1158 279 1214 222 1192 l 269 1035 b 372 1067 303 1051 335 1067 b 575 1035 440 1067 506 1035 b 744 1092 632 1035 697 1060 z m 922 0 l 554 926 l 367 926 l -4 0 l 250 0 l 299 135 l 621 135 l 665 0 z m 557 322 l 364 322 l 461 639 z "},"Õ":{"ha":1057,"x_min":0,"x_max":0,"o":"m 814 1092 l 725 1214 b 614 1185 686 1194 658 1185 b 408 1214 544 1185 478 1214 b 243 1158 349 1214 293 1192 l 339 1035 b 442 1067 372 1051 404 1067 b 644 1035 510 1067 576 1035 b 814 1092 701 1035 767 1060 z m 1018 463 b 526 944 1018 738 799 944 b 40 461 253 944 40 736 b 526 -18 40 189 256 -18 b 1018 463 797 -18 1018 188 z m 782 461 b 532 190 782 318 681 190 b 276 465 378 190 276 317 b 529 736 276 611 378 736 b 782 461 682 736 782 607 z "},"÷":{"ha":694,"x_min":0,"x_max":0,"o":"m 449 708 b 347 810 449 764 403 810 b 246 708 292 810 246 764 b 347 607 246 653 292 607 b 449 708 403 607 449 653 z m 649 390 l 649 553 l 46 553 l 46 390 z m 449 233 b 347 335 449 289 403 335 b 246 233 290 335 246 290 b 347 133 246 178 293 133 b 449 233 401 133 449 178 z "},"◊":{"ha":926,"x_min":0,"x_max":0,"o":"m 824 464 l 463 963 l 103 464 l 463 -36 z m 618 464 l 463 250 l 308 464 l 463 676 z "},"ÿ":{"ha":689,"x_min":0,"x_max":0,"o":"m 583 788 l 583 976 l 383 976 l 383 788 z m 306 788 l 306 976 l 106 976 l 106 788 z m 703 694 l 482 694 l 347 292 l 207 694 l -14 694 l 244 35 l 135 -232 l 354 -232 z "},"Ÿ":{"ha":760,"x_min":0,"x_max":0,"o":"m 639 1018 l 639 1226 l 422 1226 l 422 1018 z m 339 1018 l 339 1226 l 121 1226 l 121 1018 z m 774 926 l 519 926 l 381 554 l 243 926 l -14 926 l 263 338 l 263 0 l 499 0 l 499 338 z "},"Â":{"ha":917,"x_min":0,"x_max":0,"o":"m 742 1018 l 564 1226 l 358 1226 l 176 1018 l 397 1018 l 458 1107 l 522 1018 z m 922 0 l 554 926 l 367 926 l -4 0 l 250 0 l 299 135 l 621 135 l 665 0 z m 557 322 l 364 322 l 461 639 z "},"Ê":{"ha":651,"x_min":0,"x_max":0,"o":"m 590 1018 l 411 1226 l 267 1226 l 82 1018 l 279 1018 l 336 1099 l 394 1018 z m 593 0 l 593 208 l 306 208 l 306 367 l 585 367 l 585 575 l 306 575 l 306 718 l 593 718 l 593 926 l 79 926 l 79 0 z "},"Á":{"ha":917,"x_min":0,"x_max":0,"o":"m 661 1136 l 590 1294 l 257 1114 l 318 986 z m 922 0 l 554 926 l 367 926 l -4 0 l 250 0 l 299 135 l 621 135 l 665 0 z m 557 322 l 364 322 l 461 639 z "},"Ë":{"ha":651,"x_min":0,"x_max":0,"o":"m 596 1018 l 596 1226 l 378 1226 l 378 1018 z m 294 1018 l 294 1226 l 76 1226 l 76 1018 z m 593 0 l 593 208 l 306 208 l 306 367 l 585 367 l 585 575 l 306 575 l 306 718 l 593 718 l 593 926 l 79 926 l 79 0 z "},"È":{"ha":651,"x_min":0,"x_max":0,"o":"m 538 1114 l 204 1294 l 135 1136 l 476 986 z m 593 0 l 593 208 l 306 208 l 306 367 l 585 367 l 585 575 l 306 575 l 306 718 l 593 718 l 593 926 l 79 926 l 79 0 z "},"Í":{"ha":393,"x_min":0,"x_max":0,"o":"m 399 1136 l 328 1294 l -6 1114 l 57 986 z m 315 0 l 315 926 l 79 926 l 79 0 z "},"Î":{"ha":393,"x_min":0,"x_max":0,"o":"m 403 1018 l 274 1226 l 124 1226 l -10 1018 l 143 1018 l 197 1125 l 253 1018 z m 315 0 l 315 926 l 79 926 l 79 0 z "},"Ï":{"ha":393,"x_min":0,"x_max":0,"o":"m 386 1018 l 386 1226 l 232 1226 l 232 1018 z m 161 1018 l 161 1226 l 7 1226 l 7 1018 z m 315 0 l 315 926 l 79 926 l 79 0 z "},"Ì":{"ha":393,"x_min":0,"x_max":0,"o":"m 399 1114 l 65 1294 l -6 1136 l 338 986 z m 315 0 l 315 926 l 79 926 l 79 0 z "},"Ó":{"ha":1057,"x_min":0,"x_max":0,"o":"m 731 1136 l 660 1294 l 326 1114 l 389 986 z m 1018 463 b 526 944 1018 738 799 944 b 40 461 253 944 40 736 b 526 -18 40 189 256 -18 b 1018 463 797 -18 1018 188 z m 782 461 b 532 190 782 318 681 190 b 276 465 378 190 276 317 b 529 736 276 611 378 736 b 782 461 682 736 782 607 z "},"Ô":{"ha":1057,"x_min":0,"x_max":0,"o":"m 811 1018 l 635 1226 l 429 1226 l 246 1018 l 467 1018 l 529 1107 l 592 1018 z m 1018 463 b 526 944 1018 738 799 944 b 40 461 253 944 40 736 b 526 -18 40 189 256 -18 b 1018 463 797 -18 1018 188 z m 782 461 b 532 190 782 318 681 190 b 276 465 378 190 276 317 b 529 736 276 611 378 736 b 782 461 682 736 782 607 z "},"":{"ha":1146,"x_min":0,"x_max":0,"o":"m 633 424 l 403 424 b 400 465 401 438 400 451 b 403 501 400 478 401 489 l 660 501 l 710 619 l 442 619 b 647 736 485 689 556 736 b 872 574 751 736 836 669 l 1119 574 b 1060 721 1110 638 1094 667 b 649 944 968 865 819 944 b 189 619 433 944 253 811 l 60 619 l 10 501 l 165 501 b 164 465 164 489 164 478 b 165 424 164 451 164 438 l 60 424 l 10 307 l 190 307 b 651 -18 256 115 436 -18 b 1119 346 876 -18 1067 126 l 872 346 b 649 190 828 254 754 190 b 444 307 558 190 486 238 l 583 307 z "},"Ò":{"ha":1057,"x_min":0,"x_max":0,"o":"m 731 1114 l 397 1294 l 326 1136 l 669 986 z m 1018 463 b 526 944 1018 738 799 944 b 40 461 253 944 40 736 b 526 -18 40 189 256 -18 b 1018 463 797 -18 1018 188 z m 782 461 b 532 190 782 318 681 190 b 276 465 378 190 276 317 b 529 736 276 611 378 736 b 782 461 682 736 782 607 z "},"Ú":{"ha":850,"x_min":0,"x_max":0,"o":"m 626 1136 l 557 1294 l 224 1114 l 285 986 z m 781 365 l 781 926 l 544 926 l 544 365 b 426 190 544 275 536 190 b 306 365 321 190 306 278 l 306 926 l 69 926 l 69 365 b 163 81 69 250 78 165 b 426 -18 233 10 328 -18 b 689 82 526 -18 618 10 b 781 365 768 163 781 256 z "},"Û":{"ha":850,"x_min":0,"x_max":0,"o":"m 708 1018 l 531 1226 l 325 1226 l 142 1018 l 364 1018 l 425 1107 l 489 1018 z m 781 365 l 781 926 l 544 926 l 544 365 b 426 190 544 275 536 190 b 306 365 321 190 306 278 l 306 926 l 69 926 l 69 365 b 163 81 69 250 78 165 b 426 -18 233 10 328 -18 b 689 82 526 -18 618 10 b 781 365 768 163 781 256 z "},"Ù":{"ha":850,"x_min":0,"x_max":0,"o":"m 626 1114 l 293 1294 l 224 1136 l 565 986 z m 781 365 l 781 926 l 544 926 l 544 365 b 426 190 544 275 536 190 b 306 365 321 190 306 278 l 306 926 l 69 926 l 69 365 b 163 81 69 250 78 165 b 426 -18 233 10 328 -18 b 689 82 526 -18 618 10 b 781 365 768 163 781 256 z "}}}
